/* XPM */
static char * pattern_xpm[] = {
"18 18 5 1",
" 	c None",
".	c #949194",
"+	c #000000",
"@	c #FFFFFF",
"#	c #DEDADE",
"                  ",
"       .+++.      ",
"      .+@@#+.     ",
"      +@...#+     ",
"      +@####+     ",
"      +#####+     ",
"      .+###+.     ",
"       .+++.      ",
"        +@+       ",
"    +++++@+++++   ",
"   +@@@@+++@@@@+  ",
"  +@@@@@@@@@@@@@+ ",
"  +++++++++++++++ ",
"  +####+++++####+ ",
"  +#####+++#####+ ",
"  +######+######+ ",
"   +++++++++++++. ",
"       .          "};
