/* XPM */
static char*pause_down[]={
"22 22 5 1",
"a c #a0a0a0",
"# c #000000",
". c None",
"c c #585858",
"b c #dcdcdc",
"......................",
"......................",
"......................",
"......................",
"......###....###......",
".....#abb#..#abb#.....",
".....#baa#c.#baa#c....",
".....#baa#c.#baa#c....",
".....#baa#c.#baa#c....",
".....#baa#c.#baa#c....",
".....#baa#c.#baa#c....",
".....#baa#c.#baa#c....",
".....#baa#c.#baa#c....",
".....#baa#c.#baa#c....",
".....#baa#c.#baa#c....",
".....#baa#c.#baa#c....",
".....#baa#c.#baa#c....",
"......###ac..###ac....",
".......ccc....ccc.....",
"......................",
"......................",
"......................"};
