/* XPM */
static char*play_down[]={
"22 22 5 1",
"c c #a0a0a0",
"# c #000000",
". c None",
"b c #585858",
"a c #dcdcdc",
"......................",
"......................",
"......................",
"......................",
"......................",
"......###.............",
"......#aa##...........",
".....b#acaa##.........",
".....b#acccaa##.......",
".....b#acccccaa#......",
".....b#accccccca#.....",
".....b#acccccca##.....",
".....b#acccca##b......",
".....b#acca##bb.......",
".....b#ca##bbb........",
".....b###bbb..........",
".....bbbbb............",
"......................",
"......................",
"......................",
"......................",
"......................"};
