/* XPM */
static char*stop_xpm[]={
"18 18 4 1",
"b c #808080",
"# c #000000",
". c None",
"a c #ffffff",
"..................",
"..................",
"..................",
"....#########.....",
"...#.aaaaaaaa#....",
"...#a.......b#b...",
"...#a.......b#b...",
"...#a.......b#b...",
"...#a.......b#b...",
"...#a.......b#b...",
"...#a.......b#b...",
"...#a.......b#b...",
"...#abbbbbbbb#b...",
"....#########.b...",
"....bbbbbbbbbb....",
"..................",
"..................",
".................."};
