/* XPM */
static char*stop_down[]={
"22 22 5 1",
"a c #a0a0a0",
"# c #000000",
". c None",
"c c #585858",
"b c #dcdcdc",
"......................",
"......................",
"......................",
"......................",
"......................",
"......#########.......",
".....#abbbbbbbb#......",
".....#baaaaaaac#c.....",
".....#baaaaaaac#c.....",
".....#baaaaaaac#c.....",
".....#baaaaaaac#c.....",
".....#baaaaaaac#c.....",
".....#baaaaaaac#c.....",
".....#baaaaaaac#c.....",
".....#bcccccccc#c.....",
"......#########ac.....",
"......cccccccccc......",
"......................",
"......................",
"......................",
"......................",
"......................"};
