/* XPM */
static char * copy_xpm[] = {
"18 18 4 1",
" 	c None",
".	c #000000",
"+	c #FFFFFF",
"@	c #9C999C",
".........         ",
".+++++++..        ",
".+++++++.@.       ",
".+.....+....      ",
".+++++.........   ",
".+.....+++++++..  ",
".+++++.+++++++.@. ",
".+++++.+.....+....",
".+.....++++++++++.",
".+++++.+....+++++.",
".+++++.++++++++++.",
".+++++.++++++++++.",
".+++++.+.......++.",
".......++++++++++.",
"      .++++++++++.",
"      .++++++++++.",
"      .++++++++++.",
"      ............"};
