/* XPM */
static char*fileopen_xpm[]={
"18 18 8 1",
"f c #808080",
"b c #ffa858",
"# c #000000",
"c c #ffdca8",
". c None",
"a c #585858",
"e c #a0a0a4",
"d c #ffffff",
"..................",
"..#a#.............",
".#abc##...........",
".#daabc#####......",
".#dddaabcccb#.....",
".#ddd..abccca.....",
".#dd....aaaab#....",
".#d.......ee#b....",
".#.......eee#b....",
".#......eeee#b....",
".#.....eeeee#b....",
".##f..eeeeee#b....",
"...##feeeeee#b....",
".....##eeeee#b....",
".......##eee#b##..",
".........##e#b##..",
"...........####...",
".................."};
