/* XPM */
static char*fileopen_down[]={
"18 18 8 1",
"f c #808080",
"c c #ffa858",
"e c #a0a0a0",
"b c #c05800",
"# c #000000",
". c None",
"a c #585858",
"d c #dcdcdc",
"..................",
"..#a#.............",
".#abc##...........",
".#daabc#####......",
".#dddaabcccb#.....",
".#dddeeabccca.....",
".#ddeeeeaaaab#....",
".#deeeeeeeff#b....",
".#eeeeeeefff#b....",
".#eeeeeeffff#b....",
".#eeeeefffff#b....",
".##feeffffff#b....",
"...##fffffff#b....",
".....##fffff#b....",
".......##fff#b##..",
".........##f#b##..",
"...........####...",
".................."};
