/* XPM */
static char * paint_xpm[] = {
"18 18 5 1",
" 	c None",
".	c #000000",
"+	c #DEDADE",
"@	c #949194",
"#	c #FFFFFF",
"            .++.@ ",
"            .++.@ ",
"           .++.@@ ",
"           .++.@  ",
"          .++.@@  ",
"          .++.@   ",
"         .++.@@   ",
"         .++.@    ",
"        ....@@    ",
"       .++..@     ",
"      .##+..@     ",
"      .#+@..@     ",
"     .#+@..@@     ",
"     .+@..@@      ",
"    .#@..@@       ",
"   ....@@@        ",
"    @@@@          ",
"                  "};
