/* XPM */
static char*pause_xpm[]={
"18 18 5 1",
"b c #808080",
"# c #000000",
"c c #232323",
". c None",
"a c #ffffff",
"..................",
"..................",
"....###....###....",
"...#.aa#..#.aa#...",
"...#a..#b.#a..#b..",
"...#a..#b.#a..#b..",
"...#a..#b.#a..#b..",
"...#a..#b.#a..#b..",
"...#a..#b.#a..#b..",
"...#a..#b.#a..#b..",
"...#a..#b.#a..#b..",
"...#a..#b.#a..#b..",
"...#a..#b.#a..#b..",
"...#a..#b.#a..#b..",
"...#a.c#b.#ac.#b..",
"....###.b..###.b..",
".....bbb....bbb...",
".................."};
