/* XPM */
static char*play_xpm[]={
"18 18 4 1",
"b c #808080",
"# c #000000",
". c None",
"a c #ffffff",
"..................",
"..................",
"..................",
"....###...........",
"....#aa##.........",
"...b#a.aa##.......",
"...b#a...aa##.....",
"...b#a.....aa#....",
"...b#a.......a#...",
"...b#a......a##...",
"...b#a....a##b....",
"...b#a..a##bb.....",
"...b#aa##bbb......",
"...b###bbb........",
"...bbbbb..........",
"..................",
"..................",
".................."};
