/* XPM */
static char*rockroll[]={
"64 64 250 2",
"aY c #1c12bc",
"#V c #141224",
".w c #040296",
"#R c #140e50",
"#I c #845e7c",
"av c #ecfef7",
".g c #040e34",
"bn c #0402d4",
"b1 c #140ecc",
"aG c #0c1284",
".f c #04163c",
"bg c #c4ceac",
"bc c #a4aac4",
".c c #040e18",
"aF c #ccd2fc",
"bP c #140adc",
"bs c #8c86dc",
"ad c #8c828c",
".3 c #14068c",
"#P c #0c0a44",
".j c #04124c",
"am c #ecf2f4",
"a. c #ecdef4",
"a2 c #e4e6fc",
"#F c #6c4e5c",
"a7 c #140e67",
"#M c #040204",
"as c #14124c",
"#8 c #74625c",
"#c c #442e2c",
"#g c #34163c",
"#k c #141a54",
"bB c #443ed4",
"az c #0c0e5c",
"aw c #ccdacc",
"ac c #fcfafc",
"#o c #54422c",
"#. c #3c2a3c",
".t c #040676",
"bS c #c4ced4",
"bH c #0406b4",
".s c #040264",
"#d c #442a3c",
".u c #040687",
".l c #040237",
"aR c #ccced4",
"bA c #040ebc",
"#p c #2c1604",
"#e c #240a0c",
".J c #1c1ab4",
".H c #0402c4",
".Y c #0c0248",
"bK c #140ebc",
"#X c #644660",
"bW c #544ee4",
".p c #04022c",
".T c #0c0259",
"bl c #d4dee4",
"by c #241e6c",
"bu c #0c067c",
".Z c #0c022c",
"aK c #bcbafc",
".y c #0c027b",
".A c #04028c",
"bw c #140e84",
"br c #ecf2e4",
"#y c #5c4254",
".b c #040606",
"bq c #d4cefc",
"aN c #bcbaf1",
"bE c #1c168c",
"aM c #f4faec",
"bX c #141a44",
"#b c #3c2a2c",
"bz c #0406a4",
"bG c #040eac",
"#9 c #fcf6fc",
"bO c #ac9ee4",
".Q c #0c0688",
"be c #d4d6cc",
".K c #04066c",
"aa c #34224c",
"#K c #7c5a6c",
"#Y c #744e74",
".E c #0c0abc",
"#v c #543a3c",
".W c #0c0298",
".4 c #141a6c",
"bI c #140abc",
"b0 c #0c12c4",
"bY c #9ca6b4",
"af c #545644",
"ak c #141e24",
".N c #0402ba",
"bm c #040ab1",
"ap c #7c8684",
"bQ c #c4c2f4",
"#n c #342214",
".P c #1c12c4",
"al c #e4eee4",
"#A c #0c0a57",
"#a c #2c1e24",
"bp c #cccafc",
"#T c #6c4a4c",
".i c #041644",
"b3 c #1c1e84",
".x c #040244",
"b# c #bcc2bc",
"ax c #d4defc",
"an c #ecf6ec",
".n c #040217",
"aJ c #f4f6ec",
"ay c #dcdefc",
"aL c #0c0667",
"ai c #e4defc",
".a c #040e04",
"ah c #1c1644",
".D c #0402a4",
"bk c #0c0ac8",
"bx c #a4a6dc",
"#l c #0c1254",
".B c #040277",
"bM c #3c36d4",
".m c #04020c",
"aQ c #f4f2fc",
"#5 c #64566c",
"#U c #7c5a5c",
"bZ c #1416a4",
"aV c #ccd2cc",
"#6 c #fcf2fc",
"#f c #3c223c",
"bb c #1c16a4",
"#w c #44363c",
"aj c #04121c",
".C c #04026c",
"#2 c #2c2654",
"#t c #2c0e04",
"bU c #0402e8",
"#B c #644a58",
"#j c #040624",
"#L c #4c3e44",
"b. c #1406bc",
"a3 c #e4eed4",
".e c #040e2c",
".L c #0402cc",
".1 c #1c026c",
"#J c #643e44",
".S c #040619",
"#h c #442e5c",
"#E c #9c7274",
"#x c #64464c",
"aH c #0c0657",
"bv c #2416cc",
"aP c #140a69",
".r c #040256",
"bL c #1c1a84",
"aA c #f4fee4",
"#C c #644e54",
"bN c #d4dafc",
"aZ c #ecf2ec",
".M c #1412dc",
".h c #041a4c",
".k c #04064c",
"#W c #34222c",
".I c #1c12dc",
"a# c #ece6f4",
"#G c #744e54",
"ba c #0c0a9c",
"#r c #543a1c",
"aD c #acaed4",
".v c #04069b",
"aX c #140a9c",
"aS c #eceefc",
"b2 c #3c4284",
"bV c #1c0eec",
".6 c #0c165c",
"bJ c #c4c2d4",
"bo c #1c12a4",
"#1 c #0c0e38",
"#3 c #74526c",
"bD c #0c0eb4",
"ag c #fcfefb",
"a5 c #c4cadc",
"ae c #7c7a6c",
"ar c #f4fafa",
"ao c #748274",
"#i c #2c2254",
"#u c #5c3e34",
"bF c #acaac8",
"a9 c #0c02bc",
"aI c #b4b2ec",
"bd c #dcead4",
".o c #040224",
"Qt c None",
".R c #040a2c",
".2 c #140674",
"#s c #745234",
"#N c #0c0a2c",
"bt c #2416bc",
"aW c #b4aefc",
".z c #040284",
".9 c #0c0208",
"aE c #140e7c",
"aB c #cccef4",
"#S c #64564c",
"#D c #94767c",
".O c #1406d4",
".5 c #0c063c",
"#O c #0c1218",
"#q c #4c2e14",
".U c #0c0268",
"a1 c #d4d6fc",
"#z c #5c525c",
".X c #0c02a6",
".# c #040a05",
".0 c #140268",
".q c #04024c",
"a0 c #dcd6fc",
"aO c #0c0a70",
".F c #0c069c",
".V c #0c028a",
"bR c #1c1294",
"ab c #f4e2f4",
"#7 c #947a94",
"bf c #ccd6c4",
"at c #f4fefc",
"#Z c #342e3c",
".G c #0402ac",
"bT c #1412f4",
"#m c #140604",
"bC c #3c36dc",
"## c #3c2e3c",
"a8 c #1c0ea4",
"aC c #acb2c0",
"au c #dce6f0",
".8 c #0c0214",
".7 c #040a1c",
"aU c #e4e6f0",
"aT c #0c0a87",
"aq c #f4f6fa",
"a6 c #0c0e6c",
"#4 c #0c0a1c",
".d c #041224",
"bi c #0406c4",
"#Q c #0c0648",
"#0 c #140a1c",
"#H c #8c626c",
"bj c #0c06c4",
"bh c #e4e6d4",
"a4 c #cccee4",
"QtQtQtQt.#.#.#.#.a.a.a.#.#.#.b.b.c.c.d.e.f.g.h.i.h.i.j.j.k.k.lQtQtQtQtQtQtQtQtQtQtQtQtQtQtQtQtQtQtQtQtQtQtQtQtQtQtQtQtQtQtQtQtQt",
"QtQtQtQtQtQtQtQtQtQt.a.#.#.#.b.b.c.c.d.e.f.f.i.h.j.h.j.j.k.k.l.l.aQtQtQtQtQtQtQtQtQtQtQtQtQtQtQtQtQtQtQtQtQtQtQtQtQtQtQtQtQtQtQt",
"QtQtQtQtQtQtQtQtQtQtQtQtQt.m.n.n.o.o.l.p.q.q.r.s.t.t.u.v.w.w.u.u.x.xQtQtQtQtQtQtQtQtQtQtQtQtQtQtQtQtQtQtQtQtQtQtQtQtQtQtQtQtQtQt",
"QtQtQtQtQtQtQtQtQtQtQtQtQtQt.n.m.o.n.l.l.q.q.s.s.t.y.z.u.A.v.t.u.l.x.oQtQtQtQtQtQtQtQtQtQtQtQtQtQtQtQtQtQtQtQtQtQtQtQtQtQtQtQtQt",
"QtQtQtQtQtQtQtQtQtQtQtQtQtQtQtQt.n.n.o.o.l.x.r.r.B.B.z.A.v.w.v.v.z.z.r.sQtQtQtQtQtQtQtQtQtQtQtQtQtQtQtQtQtQtQtQtQtQtQtQtQtQtQtQt",
"QtQtQtQtQtQtQtQtQtQtQtQtQtQtQtQt.n.n.o.o.x.l.r.r.C.B.u.z.w.v.v.w.z.A.r.r.oQtQtQtQtQtQtQtQtQtQtQtQtQtQtQtQtQtQtQtQtQtQtQtQtQtQtQt",
"QtQtQtQtQtQtQtQtQtQtQtQtQtQtQtQt.m.m.n.o.l.l.r.q.C.C.z.z.w.w.D.D.E.E.v.F.r.rQtQtQtQtQtQtQtQtQtQtQtQtQtQtQtQtQtQtQtQtQtQtQtQtQtQt",
"QtQtQtQtQtQtQtQtQtQtQtQtQtQtQtQt.n.b.o.n.l.l.q.r.C.C.z.z.w.w.D.D.E.E.F.v.r.r.oQtQtQtQtQtQtQtQtQtQtQtQtQtQtQtQtQtQtQtQtQtQtQtQtQt",
"QtQtQtQtQtQtQtQtQtQtQtQtQtQtQtQtQt.m.n.o.l.l.r.q.C.C.z.u.v.v.G.G.H.H.I.I.J.J.K.KQtQtQtQtQtQtQtQtQtQtQtQtQtQtQtQtQtQtQtQtQtQtQtQt",
"QtQtQtQtQtQtQtQtQtQtQtQtQtQtQtQt.m.n.n.n.l.l.q.r.C.B.u.z.v.v.G.G.L.H.M.I.J.J.K.K.nQtQtQtQtQtQtQtQtQtQtQtQtQtQtQtQtQtQtQtQtQtQtQt",
"QtQtQtQtQtQtQtQtQtQtQtQtQtQt.m.m.n.n.l.p.q.x.s.s.t.B.u.w.v.v.G.G.N.N.O.O.P.P.A.u.l.xQtQtQtQtQtQtQtQtQtQtQtQtQtQtQtQtQtQtQtQtQtQt",
"QtQtQtQtQtQtQtQtQtQtQtQtQtQt.m.m.o.n.p.p.q.q.r.s.z.t.w.u.v.w.N.G.N.N.O.O.P.P.Q.A.x.l.R.SQtQtQtQtQtQtQtQtQtQtQtQtQtQtQtQtQtQtQtQt",
"QtQtQtQtQtQtQtQtQtQtQtQt.n.o.l.l.x.q.T.r.C.U.z.y.A.V.w.W.w.W.D.w.X.W.W.W.W.V.A.V.A.W.B.z.r.s.lQtQtQtQtQtQtQtQtQtQtQtQtQtQtQtQtQt",
"QtQtQtQtQtQtQtQtQtQtQt.n.o.o.p.l.x.Y.r.T.U.C.y.V.V.W.W.w.X.w.X.D.W.X.X.W.V.w.V.V.V.A.z.z.s.s.l.l.bQtQtQtQtQtQtQtQtQtQtQtQtQtQtQt",
"QtQtQtQtQtQtQtQtQt.m.o.n.p.p.Y.Z.Y.Y.T.T.T.0.T.T.0.U.0.0.0.0.0.0.1.1.T.0.U.0.2.2.3.3.z.z.B.t.4.4.n.oQtQtQtQtQtQtQtQtQtQtQtQtQtQt",
"QtQtQtQtQtQtQtQt.n.n.n.o.Z.o.5.5.Y.Y.Y.Y.T.T.T.0.U.0.0.y.0.y.2.0.0.1.0.T.0.U.1.2.3.W.z.z.t.t.6.4.n.n.b.bQtQtQtQtQtQtQtQtQtQtQtQt",
"QtQtQtQtQtQt.7.S.S.S.S.S.n.n.n.n.m.8.9.8#.###a#a#b#b#b#b#c#d#e#e#d#d#f#f#g#g#h#h#i#i.p.p.l.p.l.l.6.6.6.6.l.l.l.lQtQtQtQtQtQtQtQt",
"QtQtQtQt.m.S.S.7.S.S#j.S.n.n.n.n.m.n.9.m#####g#a#b#b#c#b#c#c#e#e#d#d#f#f#g#g#h#h#i#i.l.p.p.p.l.l.6#k.6#l.l.l.l.l.n.nQtQtQtQtQtQt",
"QtQt.o.o.n.o.S#j.S.S.n.n.mQtQtQtQtQt#m#m#n#n#o#o#p#p#q#q#r#r#s#s#t#t#u#u#v#w#x#y#z#z.m.m.n.m.n.o.l.l.q.r#A#A.k#A.l.l.oQtQtQtQtQt",
"Qt.n.o.o#j.o.S.o.S.S.nQtQtQtQtQtQtQt#m#m#n#n#o#u#p#p#q#q#r#r#s#s#e#t#u#u#v#v#B#x#z#z.9.m.m.m.o.n.l.l.q.q#A#A#A#A.p.l.n.oQtQtQtQt",
".o.o.o.p.o.o.o.n.n.nQtQtQtQtQtQtQtQt.9.9#C#C#x#x#D#E#F#G#H#I#H#H#J#J#E#E#K#K#y#y#L#L#M#M.m.m#N#O.m.m.m.n.7.R#j#j#P#Q#R#R.nQtQtQt",
".o.o.p.p.o.o.o.n.nQtQtQtQtQtQtQtQtQtQt.9#C#S#x#x#E#D#G#T#H#H#H#H#J#J#E#E#K#U#y#y#L#v#M#M.n.m#V#O.m.n.m.m.7.7#j.R#P#P#R#R.nQtQtQt",
".n.o.o.o.o.n.n.nQtQtQtQtQtQtQtQtQtQtQt.9#W#W#C#F#B#X#Y#Y#Y#Y#I#H#G#U#T#T#K#K#y#X#f#Z#0#0.mQtQtQtQtQtQtQtQt#M.n.n#N#1#2#2.7QtQtQt",
".o.o.o.o.oQtQtQtQtQtQtQtQtQtQtQtQtQtQt.9#W#W#F#F#X#X#3#3#Y#Y#I#I#U#U#T#x#K#K#B#B###f#0#0QtQtQtQtQtQtQtQtQtQt.n.m#P#1#2#2#4QtQtQt",
"Qt.mQtQtQtQtQtQtQtQtQtQtQtQtQtQtQtQtQt#M#w###z#z#5#F#6#6#X#X#7#7#U#8#S#S#6#9a.a#aa#i.n.nQtQtQtQtQtQtQtQtQtQtQt.n#M.m#O#OQtQtQtQt",
"QtQtQtQtQtQtQtQtQtQtQtQtQtQtQtQtQtQtQt#M#w#w#C#z#5#3#6#6#X#X#D#7#8#8#S#S#9#6abab#iaa.n.nQtQtQtQtQtQtQtQtQtQtQtQtQtQtQtQtQtQtQtQt",
"QtQtQtQtQtQtQtQtQtQtQtQtQtQtQtQtQtQtQt#M#M.m#Z#Za#a#ac#9a.a.adadaeaeafafacagac#9ahah.p.pQtQtQtQtQtQtQtQtQtQtQtQtQtQtQtQtQtQtQtQt",
"QtQtQtQtQtQtQtQtQtQtQtQtQtQtQtQtQtQtQt.m#M#M#Z#Za#a#acaca.aiadadaeaeafafagagac#9ahah.p.pQtQtQtQtQtQtQtQtQtQtQtQtQtQtQtQtQtQtQtQt",
"QtQtQtQtQtQtQtQtQtQtQtQtQtQtQtQtQtQtajaj.m.makakalamagagagagananaoaoapapaqaqaracas#R.l.l.nQtQtQtQtQtQtQtQtQtQtQtQtQtQtQtQtQtQtQt",
"QtQtQtQtQtQtQtQtQtQtQtQtQtQtQtQtQt.m.d.c.m.makakamamagatagatalanaoaoaoapamaqataras#l.p.l.nQtQtQtQtQtQtQtQtQtQtQtQtQtQtQtQtQtQtQt",
"QtQtQtQtQtQtQtQtQtQtQtQtQtQtQtQt#j#j.o.o.g.g.e.Rauauavavawawavavavavatatatataxay.kaz.l.l.nQtQtQtQtQtQtQtQtQtQtQtQtQtQtQtQtQtQtQt",
"QtQtQtQtQtQtQtQtQtQtQtQtQtQtQtQt#j.o.n.o.g.g.e.gauauavavawawavavaAavatatataraxaxaz.k.l.l.nQtQtQtQtQtQtQtQtQtQtQtQtQtQtQtQtQtQtQt",
"QtQtQtQtQtQtQtQtQtQtQtQtQtQtQt.m.p.p.k#A.r.r.q.qaBaBaCaDalalagagatagaraqarac.q.xaEaE.r.r.nQtQtQtQtQtQtQtQtQtQtQtQtQtQtQtQtQtQtQt",
"QtQtQtQtQtQtQtQtQtQtQtQtQtQtQt.n.p.p#A#A.r.r.q.qaFaBaCaCalalaAagagagaqaqarar.x.xaEaG.q.q.m.mQtQtQtQtQtQtQtQtQtQtQtQtQtQtQtQtQtQt",
"QtQtQtQtQtQtQtQtQtQtQtQtQtQtQt.m.l.l.q.q.U.UaH.TaIaIagaratagaJanaqaqagacaKaKaL.U.Q.Q.r.s.n.mQtQtQtQtQtQtQtQtQtQtQtQtQtQtQtQtQtQt",
"QtQtQtQtQtQtQtQtQtQtQtQtQtQt.m.n.l.x.q.qaL.U.saHaIaIagagacataJaMaqaqacacaNaNaLaL.Q.F.s.s.m.mQtQtQtQtQtQtQtQtQtQtQtQtQtQtQtQtQtQt",
"QtQtQtQtQtQtQtQtQtQtQtQtQtQt.n.n#Paz.x.qaOaP.r.TaQaQagagaraJagagaRaRacagaiai.B.C.X.X.Q.Q.7.S.bQtQtQtQtQtQtQtQtQtQtQtQtQtQtQtQtQt",
"QtQtQtQtQtQtQtQtQtQtQtQtQtQt.n.nas#P.q.xaPaP.Y.raQaSagagaqaragagaRaRacacaiay.C.C.D.XaT.Q.7.7.#QtQtQtQtQtQtQtQtQtQtQtQtQtQtQtQtQt",
"QtQtQtQtQtQtQtQtQtQtQtQtQt.m.o.o.q.xaOaP.q.raz#RacacaUauagagaVaVanaJaSaQaWaWaX.FaYaY.V.u.p.p.#.#QtQtQtQtQtQtQtQtQtQtQtQtQtQtQtQt",
"QtQtQtQtQtQtQtQtQtQtQtQt.n.m.o.o.x.q#RaO.q.q#RazacagaUaUagagaVaVaJaZaSaSaWaWaXaXaYaY.A.z.p.o.7.#.mQtQtQtQtQtQtQtQtQtQtQtQtQtQtQt",
"QtQtQtQtQtQtQtQtQtQtQt.m.n.o.l.l.q.q.r.r.r.ra0a1a2a2aCaCararagaga3a3a4a4.z.V.D.X.B.z.C.t#Aaz.l.l.nQtQtQtQtQtQtQtQtQtQtQtQtQtQtQt",
"QtQtQtQtQtQtQtQtQtQtQt.n.o.n.p.l.q.r.r.s.Y.ra0a1a2a2aCaCaqaragaga3a3a5a4.B.V.G.G.z.B.t.Ca6#A.l.l.n.nQtQtQtQtQtQtQtQtQtQtQtQtQtQt",
"QtQtQtQtQtQtQtQtQtQt.o.n.l.l.q.qaLaLaEaP#Aa7acaragaragagaqanagatagagaDaDa8a8a9b..B.zaGaG.t.u.r.r.n.nQtQtQtQtQtQtQtQtQtQtQtQtQtQt",
"QtQtQtQtQtQtQtQtQt.n.o.o.l.l.q.qaOaLa7aE#R#AaracagagagagaqanacagaAagaCaDaXa8b.a9.z.BaGaGaTaT.r.r.n.n.mQtQtQtQtQtQtQtQtQtQtQtQtQt",
"QtQtQtQtQtQtQtQt.n.o.l.l.q.q.U.s.y.C.s.s.q#QaBaBatagananb#b#agagaUaU.l.laXaX.N.Gbaba.A.z.w.Dbbbb.p.p.mQtQtQtQtQtQtQtQtQtQtQtQtQt",
"QtQtQtQtQtQtQtQt.o.o.p.l.q.T.s.T.y.B.s.saH.ka4aBagagaMaMb#b#agagaUaU.l.xaXaX.N.Xbaba.A.A.D.wbbbb.p.p#M#MQtQtQtQtQtQtQtQtQtQtQtQt",
"QtQtQtQtQtQtQt.n.l.p.q.x.s.U.y.y.B.y.B.C#A#RbcbcavaJbdbdbebfararayay.q.qaXaX.X.N.A.w.G.G.H.L.D.D.q.q.o.oQtQtQtQtQtQtQtQtQtQtQtQt",
"QtQtQtQtQtQtQt.n.p.p.q.x.U.s.y.y.B.V.C.B#Pa7bcbcanaJbdbdbebeaqaqayay.q.raXbaa9.G.w.w.G.G.H.L.D.D.q.q.o.o.nQtQtQtQtQtQtQtQtQtQtQt",
"QtQtQtQtQtQtQt.5.l.l.KaH.y.y.B.B.A.z.y.y.q.xaracaManbgbgbhbhagagaKaK.B.C.A.A.D.Dbibjbkbk.L.La9bj.w.W.r.r.oQtQtQtQtQtQtQtQtQtQtQt",
"QtQtQtQtQtQt#N.R.l.laLaL.y.y.z.B.z.z.y.y.x.qaratanaMbgbgbhblagagaKaK.C.B.A.A.D.Dbjbmbkbj.Lbnbjbj.W.w.r.r.n.oQtQtQtQtQtQtQtQtQtQt",
"QtQtQtQtQt.n.p.p.kaH.r.s.B.zbobo.A.A.y.ybpbqagagbfbfaAaAbraJacacbsbs.Q.V.v.w.G.D.N.N.H.H.N.N.H.N.Ibt.B.B.o.oQtQtQtQtQtQtQtQtQtQt",
"QtQtQtQtQt.m.p.laH.r.s.r.z.Bbobo.A.zbububpbpatagaVbfaAaJbrbracagbsbs.Qbu.F.F.G.D.N.N.N.N.N.H.N.Nbv.I.B.B.o.o#MQtQtQtQtQtQtQtQtQt",
"QtQtQtQt.n.o.l.x.saLbwbw.z.z.B.B.3.Q.r.rbxbxagagaMaJagaAagag#9aqbyby.r.s.A.A.w.w.w.wbzbzbAbAbibk.N.NbBbC.p.p.bQtQtQtQtQtQtQtQtQt",
"QtQtQtQt.n.o.x.laL.Ubwbw.z.B.B.B.3.Q.r.rbxbxagataJaMaAagagagacarbyby.s.s.A.w.w.D.w.DbzbzbDbAbkbi.N.NbBbB.p.p.b.bQtQtQtQtQtQtQtQt",
"QtQtQt.#.p.p.r.rbuaL.B.C.B.BbEbE.C.ya6a6a2a2aqamataragagbFbFaNaN.l.x.s.s.A.A.w.w.w.A.w.wbGbGbHbH.M.MbI.E.q.q#j.R.bQtQtQtQtQtQtQt",
"QtQtQt.#.o.p.q.qaObu.C.C.C.CbEbE.C.C#Ra7a2aSamaqaracagagbFbFbJaN.x.x.s.s.A.z.w.w.A.w.w.AbGbGbHbz.M.MbKbI.r.q#j.R.mQtQtQtQtQtQtQt",
"QtQtQt.7.l.l.C.U.C.C.C.CbLbL.r.q.q.ka1a1acaragagararbJbJbqbq.Y.Y.k.ra6a6.B.B.v.u.w.w.w.w.w.v.D.D.N.N.G.NbMbM.r.s.n.nQtQtQtQtQtQt",
"QtQt.7#j.l.xaL.C.B.C.C.CbLbL.q.r.k.ka1bNagagatagaraqa5bJbqbq.Y#QaHaHa6a6.z.B.u.v.v.w.w.w.v.v.w.D.G.N.N.NbMbM.s.r.o.n.b.bQtQtQtQt",
"QtQt.o.na6a7.B.C.B.Bbwbw.q.q#l#la1a1ataga5a5ataga5a5a2a2bObO.r.r.r.r.C.C.B.B.v.v.G.G.N.Nbzbzbmbm.Hbi.L.LbP.ObCbC.r.r.l.l.l.lQtQt",
"QtQt.n.oa7a6.C.B.B.Bbwbw.q.qas#la1a1atata5a5agagbJbQa#a2bObO.T.T.U.s.C.C.B.C.v.v.G.GbHbzbmbmbmbmbi.L.Lbnbk.ObCbC.r.r.l.p.l.l.p.l",
"Qt.n.l.l.saL.C.BaXbR.s.s.l.latataravbSbSblblatagaDbFaNaN.U.T.C.s.y.y.z.z.A.wbHbH.H.Hbnbn.N.N.H.HbTbTbUbUbUbUbVbV.D.DbWbW.r.r.q.x",
"Qt.n.p.laL.C.C.BbwbR.s.s.l.latatavarbSbSblblagagbFbFaNaN.0.T.C.U.V.y.z.z.A.wbmbH.H.Hbnbn.N.H.H.HbTbTbUbUbUbUbVbV.D.wbWbW.r.s.x.q",
".n.mbXbX.q.xaOaO.r.r#AaObQbQamarbYbYauaubJa5#1#1.p.l.q.Y.C.s.y.y.C.U.B.CaTaTbZbZ.D.Db0b0bmbmbDbD.N.NbPb1.Na9b.b.aYaY.A.AbLbLb2b2",
".n.nbXbX.x.qaPaO.r.raz.kbQbQararbYbYauaua5a5#N#1.l.l.q.r.C.C.y.y.C.B.C.CaTaTbZbZ.D.wb0bDbGbGbDbD.G.Nb1b1a9a9.EbIbt.J.F.Ab3.4b2b2"};
